<?xml version="1.0" standalone="no"?>
<!DOCTYPE svg PUBLIC "-//W3C//DTD SVG 20010904//EN"
 "http://www.w3.org/TR/2001/REC-SVG-20010904/DTD/svg10.dtd">
<svg version="1.0" xmlns="http://www.w3.org/2000/svg"
 width="700.000000pt" height="700.000000pt" viewBox="0 0 700.000000 700.000000"
 preserveAspectRatio="xMidYMid meet">
<metadata>
Created by potrace 1.14, written by Peter Selinger 2001-2017
</metadata>
<g transform="translate(0.000000,700.000000) scale(0.100000,-0.100000)"
fill="#000000" stroke="none">
<path d="M3135 6984 c-593 -68 -1106 -254 -1588 -576 -281 -188 -576 -459
-790 -728 -339 -424 -584 -953 -691 -1490 -47 -234 -58 -351 -61 -635 -5 -346
14 -543 76 -813 16 -70 34 -145 39 -167 17 -76 103 -321 158 -449 181 -424
421 -778 751 -1106 285 -282 564 -483 919 -660 372 -185 831 -315 1222 -347
118 -10 547 -10 655 -1 356 31 749 133 1090 283 533 236 1011 612 1367 1075
275 359 495 806 602 1228 49 192 57 229 83 402 23 155 26 207 27 455 1 251 -5
390 -20 495 -81 568 -255 1033 -559 1490 -153 229 -238 333 -440 535 -204 204
-320 299 -550 451 -452 297 -993 496 -1490 549 -33 4 -71 9 -85 12 -60 12
-598 10 -715 -3z"/>
</g>
</svg>
